<svg width="63" height="63" viewBox="0 0 63 63" fill="none" xmlns="http://www.w3.org/2000/svg">
<g id="Fingerprint">
<path id="Vector" d="M12.4741 45.508C14.6366 41.1562 15.7585 36.3615 15.7514 31.5021C15.7492 29.1406 16.279 26.809 17.3015 24.6804C18.3239 22.5517 19.8128 20.6808 21.6576 19.2065" stroke="#099DBA" stroke-width="2" stroke-linecap="round" stroke-linejoin="round"/>
<path id="Vector_2" d="M31.5013 31.5024C31.5137 39.5076 29.4829 47.3834 25.6011 54.3843" stroke="#099DBA" stroke-width="2" stroke-linecap="round" stroke-linejoin="round"/>
<path id="Vector_3" d="M23.6265 31.5024C23.6265 29.4139 24.4561 27.4108 25.933 25.934C27.4098 24.4571 29.4129 23.6274 31.5015 23.6274C33.59 23.6274 35.5931 24.4571 37.0699 25.934C38.5468 27.4108 39.3765 29.4139 39.3765 31.5024C39.388 39.6195 37.5998 47.6382 34.1408 54.9813" stroke="#099DBA" stroke-width="2" stroke-linecap="round" stroke-linejoin="round"/>
<path id="Vector_4" d="M53.7876 45.2832C54.6804 40.7438 55.1289 36.1283 55.1266 31.502C55.1266 25.2362 52.6375 19.2271 48.207 14.7966C43.7764 10.366 37.7673 7.87695 31.5016 7.87695C25.2358 7.87695 19.2267 10.366 14.7962 14.7966C10.3656 19.2271 7.87656 25.2362 7.87656 31.502C7.87949 34.1843 7.42486 36.8475 6.53223 39.377" stroke="#099DBA" stroke-width="2" stroke-linecap="round" stroke-linejoin="round"/>
<path id="Vector_5" d="M22.8388 39.377C21.9983 43.5167 20.4928 47.4929 18.3809 51.1513" stroke="#099DBA" stroke-width="2" stroke-linecap="round" stroke-linejoin="round"/>
<path id="Vector_6" d="M29.5327 15.8743C31.7495 15.597 33.9999 15.7942 36.1347 16.4526C38.2696 17.1111 40.24 18.2159 41.9155 19.6936C43.591 21.1714 44.9332 22.9885 45.8531 25.0243C46.773 27.0602 47.2497 29.2684 47.2515 31.5024C47.2521 34.135 47.0893 36.765 46.7641 39.3773" stroke="#099DBA" stroke-width="2" stroke-linecap="round" stroke-linejoin="round"/>
<path id="Vector_7" d="M45.2667 47.252C44.8918 48.7086 44.4668 50.1441 43.9917 51.5586" stroke="#099DBA" stroke-width="2" stroke-linecap="round" stroke-linejoin="round"/>
</g>
</svg>
