<svg width="238" height="73" viewBox="0 0 238 73" fill="none" xmlns="http://www.w3.org/2000/svg">
<path d="M36.4283 69.5323C54.9142 69.5323 69.9 54.6322 69.9 36.252C69.9 17.8718 54.9142 2.97168 36.4283 2.97168C17.9423 2.97168 2.95654 17.8718 2.95654 36.252C2.95654 54.6322 17.9423 69.5323 36.4283 69.5323Z" fill="url(#paint0_linear_1_677)"/>
<path d="M39.2585 24.2022C39.1363 23.7845 39.0062 23.3681 38.8566 22.9634C38.7838 22.7603 38.7071 22.5599 38.6212 22.3659C38.5354 22.1745 38.4404 21.9844 38.3273 21.8331C38.2726 21.7594 38.2076 21.696 38.166 21.6805C38.1452 21.6715 38.1426 21.6779 38.1452 21.6805V21.6818L38.1322 21.6844C38.127 21.6857 38.1231 21.687 38.1244 21.6883C38.1244 21.6896 38.1283 21.6909 38.1257 21.6921C38.1127 21.7038 38.0567 21.7788 38.0177 21.859C37.9761 21.9404 37.9371 22.0335 37.9007 22.128C37.7576 22.512 37.6483 22.9284 37.5443 23.3436C37.3336 24.1751 37.1528 25.0221 36.985 25.8705C36.8146 26.7201 36.6417 27.5684 36.483 28.4219L36.245 29.7022L35.9978 30.9824C35.9146 31.4105 35.8327 31.8398 35.7416 32.2718C35.6506 32.705 35.5569 33.1382 35.4295 33.5869C35.3657 33.8119 35.2916 34.0395 35.1837 34.2814C35.1316 34.4016 35.0666 34.5284 34.9847 34.659C34.9027 34.7883 34.7948 34.9306 34.6322 35.0663C34.4735 35.2008 34.2342 35.3172 33.9962 35.3457C33.7595 35.378 33.5227 35.3379 33.3433 35.2681C32.9791 35.1245 32.7593 34.9228 32.5655 34.7353C32.1896 34.3525 31.9308 33.962 31.6824 33.5714C31.4391 33.1796 31.2206 32.7903 31.0125 32.3959C30.1879 30.8143 29.5025 29.1655 28.9679 27.4727C28.449 25.7748 28.0393 24.0458 27.8208 22.2857C27.7636 21.846 27.718 21.4051 27.6816 20.9615C27.6647 20.7391 27.6504 20.5179 27.64 20.2903C27.6335 20.064 27.6309 19.8468 27.6309 19.6256C27.6296 18.7437 27.6621 17.8617 27.731 16.9849C27.8858 15.2326 28.1694 13.4946 28.6376 11.8096L28.7143 11.8238C28.3931 13.5321 28.2032 15.2637 28.1407 16.9992C28.0913 18.7346 28.129 20.4778 28.423 22.1913C28.7 23.9061 29.1188 25.5963 29.6625 27.2464C30.2087 28.8952 30.8825 30.5027 31.7006 32.0351C31.9035 32.4192 32.1103 32.8007 32.3379 33.1692C32.5655 33.5365 32.8074 33.8986 33.1052 34.2038C33.2548 34.3538 33.42 34.4909 33.6086 34.5646C33.7946 34.6383 34.0053 34.6189 34.1562 34.4883C34.3096 34.3628 34.4137 34.1714 34.5021 33.9801C34.5906 33.7861 34.6595 33.5818 34.7232 33.3761C34.969 32.5472 35.1407 31.6924 35.3267 30.8441C35.5075 29.9931 35.6896 29.1422 35.8782 28.2926C36.0668 27.443 36.2619 26.5946 36.4687 25.7489C36.6755 24.9031 36.8927 24.06 37.1463 23.2259C37.2751 22.8095 37.409 22.3931 37.5859 21.9909C37.6314 21.8913 37.6783 21.7904 37.7368 21.6947C37.7953 21.6003 37.8564 21.502 37.9618 21.4322C38.0164 21.3973 38.0815 21.3844 38.1413 21.3831C38.2063 21.3831 38.27 21.4051 38.3195 21.4374C38.4222 21.5033 38.4912 21.5977 38.5523 21.6909C38.6706 21.881 38.7552 22.0853 38.8306 22.2909C38.906 22.4965 38.9698 22.706 39.0296 22.9155C39.148 23.3358 39.2442 23.7613 39.3327 24.1867L39.2585 24.2022Z" fill="white"/>
<path d="M27.251 11.3996C27.8454 10.8913 28.5334 10.4904 29.2644 10.1723C29.6324 10.0184 30.0122 9.88911 30.3998 9.77919C30.7887 9.66927 31.1945 9.60203 31.6003 9.55288C31.8032 9.52961 32.0074 9.5128 32.2116 9.50374C32.3143 9.49728 32.4158 9.49728 32.5172 9.49728C32.6187 9.49728 32.7201 9.49598 32.8216 9.49986C33.2274 9.50504 33.628 9.54642 34.026 9.59427C34.225 9.61884 34.4226 9.64987 34.6177 9.68479C34.8141 9.71712 35.0079 9.75721 35.203 9.796C35.5906 9.88006 35.973 9.97576 36.3528 10.0792C37.868 10.5047 39.3338 11.0957 40.7021 11.8535C42.0756 12.5996 43.3593 13.5036 44.483 14.5782L44.4401 14.6429C43.8002 14.2252 43.146 13.8282 42.4787 13.457C41.8128 13.082 41.1326 12.7328 40.4394 12.4108C39.0542 11.7668 37.6157 11.2327 36.1434 10.8267C35.4085 10.6198 34.6633 10.4439 33.9102 10.321C33.1571 10.1982 32.3937 10.1348 31.6341 10.1697C30.8745 10.2047 30.1202 10.3521 29.3918 10.5732C28.6609 10.7905 27.9572 11.0944 27.2913 11.4668L27.251 11.3996Z" fill="white"/>
<path d="M40.832 14.7568C40.6461 14.9055 40.4327 15.0516 40.1583 15.0659C40.0218 15.0723 39.8813 15.0245 39.7642 14.9521C39.6472 14.8783 39.5522 14.7801 39.4716 14.6753C39.309 14.4645 39.2076 14.224 39.1295 13.9796C39.0528 13.7352 39.0047 13.483 38.9825 13.2269C38.9721 13.0989 38.9812 12.9709 38.9943 12.8441C39.0086 12.7174 39.0229 12.5894 39.0463 12.4639C39.0905 12.2118 39.1633 11.9622 39.2635 11.7217C39.3662 11.4785 39.4924 11.26 39.6342 11.0492C39.7772 10.8384 39.9359 10.638 40.1258 10.4543C40.317 10.2733 40.5381 10.0987 40.8372 10.0095C40.9114 9.98749 40.992 9.97455 41.0727 9.96938C41.1533 9.96679 41.2417 9.97197 41.3172 9.98878C41.472 10.0198 41.6202 10.0871 41.7425 10.1737C41.9909 10.3483 42.1496 10.5798 42.2783 10.8087C42.4045 11.0389 42.4968 11.2768 42.5749 11.5147C42.7284 11.9919 42.822 12.4743 42.8935 12.9567C42.9638 13.439 43.0106 13.9227 43.0418 14.405C43.1042 15.3698 43.1055 16.3384 43.0821 17.2953C43.0639 18.2549 43.0223 19.2196 42.9222 20.1817C42.822 21.1426 42.6685 22.1021 42.4344 23.0449C42.1236 23.9682 41.7386 24.8657 41.2378 25.6907C41.5487 24.7803 41.7776 23.8557 41.9285 22.9207C42.1574 22.0064 42.3057 21.0701 42.4045 20.1287C42.502 19.186 42.5437 18.2381 42.5619 17.285C42.5866 16.3306 42.584 15.384 42.5229 14.4387C42.4929 13.9666 42.4474 13.4972 42.3798 13.0317C42.3109 12.5687 42.2198 12.1083 42.0806 11.6738C42.0104 11.4578 41.9272 11.2471 41.8231 11.057C41.7191 10.8694 41.5916 10.6987 41.4446 10.5966C41.3718 10.5449 41.2951 10.5112 41.2144 10.4944C41.1351 10.4776 41.0649 10.4815 40.9816 10.5061C40.8164 10.5526 40.6421 10.6768 40.4887 10.8255C40.1817 11.1268 39.9177 11.5238 39.7434 11.9208C39.573 12.3243 39.5015 12.7743 39.5067 13.2192C39.4781 13.6614 39.5197 14.1309 39.7122 14.5227C39.8084 14.7154 39.9567 14.8822 40.1674 14.9158C40.3807 14.9521 40.62 14.8667 40.832 14.7568Z" fill="white"/>
<path d="M23.1891 39.759L23.656 39.8766C23.5585 40.2581 23.3816 40.5491 23.128 40.7496C22.873 40.95 22.5622 41.0496 22.1941 41.0496C21.813 41.0496 21.5035 40.972 21.2655 40.8181C21.0274 40.6642 20.8454 40.4405 20.7205 40.1482C20.5956 39.856 20.5332 39.5417 20.5332 39.2068C20.5332 38.8408 20.6034 38.5227 20.7439 38.2498C20.8844 37.9782 21.0847 37.7713 21.3435 37.6291C21.6023 37.4881 21.8885 37.417 22.1993 37.417C22.5531 37.417 22.8496 37.5062 23.0902 37.6847C23.3309 37.8631 23.4986 38.1153 23.5936 38.4386L23.1332 38.546C23.0512 38.2899 22.9329 38.105 22.7768 37.9886C22.6207 37.8722 22.4256 37.814 22.1889 37.814C21.9171 37.814 21.6908 37.8787 21.5087 38.008C21.3266 38.1373 21.1978 38.3106 21.125 38.5291C21.0522 38.7477 21.0144 38.9714 21.0144 39.2029C21.0144 39.5016 21.0587 39.7616 21.1458 39.9853C21.2329 40.2077 21.3695 40.3745 21.5542 40.4844C21.7389 40.5944 21.9392 40.65 22.1538 40.65C22.4152 40.65 22.6376 40.575 22.8184 40.425C23.0018 40.2775 23.1254 40.0551 23.1891 39.759Z" fill="white"/>
<path d="M23.9434 38.4478H26.0218V38.8047H25.1985V40.9915H24.768V38.8047H23.9447V38.4478H23.9434Z" fill="white"/>
<path d="M26.2197 39.7191C26.2197 39.2483 26.3511 38.8992 26.6151 38.6729C26.8349 38.4841 27.1029 38.3896 27.4202 38.3896C27.7714 38.3896 28.0588 38.5047 28.2825 38.7336C28.5062 38.9625 28.6168 39.2794 28.6168 39.6828C28.6168 40.01 28.5674 40.2674 28.4685 40.4549C28.3697 40.6424 28.2266 40.7885 28.038 40.892C27.8494 40.9954 27.6439 41.0472 27.4202 41.0472C27.0625 41.0472 26.7725 40.9334 26.5514 40.7045C26.329 40.4769 26.2197 40.1484 26.2197 39.7191ZM26.6645 39.7191C26.6645 40.0449 26.7361 40.2881 26.8791 40.451C27.0222 40.6126 27.2017 40.6941 27.4189 40.6941C27.6335 40.6941 27.813 40.6127 27.9561 40.4497C28.0991 40.2868 28.1707 40.0385 28.1707 39.7048C28.1707 39.3906 28.0991 39.1526 27.9548 38.9897C27.8117 38.828 27.6322 38.7466 27.4189 38.7466C27.2017 38.7466 27.0222 38.8267 26.8791 38.9884C26.7361 39.15 26.6645 39.3932 26.6645 39.7191Z" fill="white"/>
<path d="M29.1357 38.4478H29.8108L30.4832 40.4832L31.2298 38.4478H31.8541V40.9915H31.4209V38.9443L30.6653 40.9915H30.2777L29.5623 38.8461V40.9915H29.1383V38.4478H29.1357Z" fill="white"/>
<path d="M34.1848 40.677C34.0248 40.8128 33.8701 40.9085 33.7218 40.9641C33.5735 41.0197 33.4135 41.0481 33.2432 41.0481C32.9622 41.0481 32.7463 40.9796 32.5955 40.8438C32.4446 40.7067 32.3691 40.5334 32.3691 40.3201C32.3691 40.1959 32.3978 40.0821 32.455 39.9787C32.5122 39.8752 32.5863 39.7924 32.6787 39.7304C32.771 39.6683 32.8751 39.6204 32.9908 39.5894C33.0754 39.5674 33.2041 39.5454 33.3758 39.5248C33.7257 39.4834 33.9832 39.4342 34.1484 39.376C34.1497 39.3165 34.151 39.279 34.151 39.2635C34.151 39.0877 34.1107 38.9648 34.0274 38.8924C33.9169 38.7954 33.7517 38.7463 33.5332 38.7463C33.329 38.7463 33.1781 38.7812 33.0819 38.8523C32.9843 38.9234 32.9128 39.0489 32.866 39.2299L32.442 39.173C32.481 38.992 32.5434 38.8471 32.6319 38.7359C32.7203 38.6247 32.8478 38.5393 33.0143 38.4799C33.1807 38.4204 33.3745 38.3906 33.5943 38.3906C33.8128 38.3906 33.9897 38.4165 34.1263 38.4669C34.2629 38.5187 34.363 38.582 34.428 38.6596C34.4918 38.7372 34.5373 38.8342 34.5633 38.9532C34.5776 39.0269 34.5854 39.1588 34.5854 39.3502V39.9243C34.5854 40.3252 34.5945 40.5787 34.6127 40.6847C34.6309 40.7908 34.6674 40.8929 34.722 40.9899H34.2694C34.2264 40.9007 34.1978 40.796 34.1848 40.677ZM34.1484 39.7136C33.991 39.7769 33.7543 39.8312 33.4409 39.8765C33.2627 39.9024 33.1365 39.9308 33.0624 39.9631C32.9882 39.9955 32.931 40.042 32.892 40.1028C32.8517 40.1649 32.8322 40.2321 32.8322 40.3071C32.8322 40.4222 32.8764 40.5179 32.9635 40.5942C33.0507 40.6705 33.1794 40.7093 33.3472 40.7093C33.5137 40.7093 33.6633 40.6731 33.7933 40.6007C33.9234 40.5283 34.0183 40.4287 34.0795 40.302C34.1263 40.205 34.1497 40.0614 34.1497 39.8713V39.7136H34.1484Z" fill="white"/>
<path d="M34.917 38.4478H36.9954V38.8047H36.1721V40.9915H35.7416V38.8047H34.9183V38.4478H34.917Z" fill="white"/>
<path d="M37.1929 39.7191C37.1929 39.2483 37.3242 38.8992 37.5883 38.6729C37.8081 38.4841 38.076 38.3896 38.3934 38.3896C38.7445 38.3896 39.032 38.5047 39.2557 38.7336C39.4794 38.9625 39.5899 39.2794 39.5899 39.6828C39.5899 40.01 39.5405 40.2674 39.4417 40.4549C39.3428 40.6424 39.1998 40.7885 39.0112 40.892C38.8226 40.9954 38.6171 41.0472 38.3934 41.0472C38.0357 41.0472 37.7456 40.9334 37.5245 40.7045C37.3034 40.4756 37.1929 40.1484 37.1929 39.7191ZM37.6377 39.7191C37.6377 40.0449 37.7092 40.2881 37.8523 40.451C37.9954 40.6139 38.1749 40.6941 38.3921 40.6941C38.6067 40.6941 38.7861 40.6127 38.9292 40.4497C39.0723 40.2868 39.1438 40.0385 39.1438 39.7048C39.1438 39.3906 39.0723 39.1526 38.9279 38.9897C38.7848 38.828 38.6054 38.7466 38.3921 38.7466C38.1749 38.7466 37.9954 38.8267 37.8523 38.9884C37.7092 39.15 37.6377 39.3932 37.6377 39.7191Z" fill="white"/>
<path d="M40.2011 38.4478H42.2145V40.9915H41.7827V38.8047H40.6342V40.072C40.6342 40.3669 40.6251 40.5621 40.6056 40.6565C40.5861 40.7509 40.5328 40.8324 40.4469 40.9035C40.3611 40.9747 40.2349 41.0083 40.0711 41.0083C39.9696 41.0083 39.8539 41.0018 39.7212 40.9889V40.6294H39.9111C40.0008 40.6294 40.0659 40.6203 40.1036 40.6022C40.1426 40.5841 40.1673 40.5544 40.1803 40.5143C40.1933 40.4742 40.1998 40.3449 40.1998 40.1237V38.4478H40.2011Z" fill="white"/>
<path d="M42.7607 39.7191C42.7607 39.2483 42.8921 38.8992 43.1561 38.6729C43.3759 38.4841 43.6439 38.3896 43.9612 38.3896C44.3124 38.3896 44.5998 38.5047 44.8235 38.7336C45.0472 38.9625 45.1578 39.2794 45.1578 39.6828C45.1578 40.01 45.1084 40.2674 45.0095 40.4549C44.9107 40.6424 44.7676 40.7885 44.579 40.892C44.3904 40.9954 44.1849 41.0472 43.9612 41.0472C43.6035 41.0472 43.3135 40.9334 43.0924 40.7045C42.8713 40.4756 42.7607 40.1484 42.7607 39.7191ZM43.2069 39.7191C43.2069 40.0449 43.2784 40.2881 43.4215 40.451C43.5645 40.6139 43.744 40.6941 43.9612 40.6941C44.1758 40.6941 44.3553 40.6127 44.4984 40.4497C44.6414 40.2868 44.713 40.0385 44.713 39.7048C44.713 39.3906 44.6414 39.1526 44.4971 38.9897C44.354 38.828 44.1745 38.7466 43.9612 38.7466C43.744 38.7466 43.5645 38.8267 43.4215 38.9884C43.2784 39.15 43.2069 39.3932 43.2069 39.7191Z" fill="white"/>
<path d="M45.668 38.4478H47.139V38.8047H46.1011V40.9915H45.668V38.4478Z" fill="white"/>
<path d="M47.4653 38.4478H47.8984V40.3875L49.1002 38.4478H49.5672V40.9915H49.134V39.0633L47.9323 40.9915H47.4653V38.4478Z" fill="white"/>
<path d="M52.2346 38.4478V40.9915H51.8041V39.9996H51.5531C51.4009 39.9996 51.2864 40.019 51.2123 40.0578C51.1382 40.0966 51.0289 40.222 50.8859 40.4354L50.5074 40.9915H49.9702L50.4371 40.3061C50.5802 40.0966 50.722 39.9789 50.8637 39.9517C50.6166 39.9181 50.4332 39.8302 50.3136 39.6853C50.1939 39.5418 50.1341 39.3763 50.1341 39.19C50.1341 38.9702 50.2121 38.7904 50.3695 38.6534C50.5256 38.5163 50.7532 38.4478 51.0497 38.4478H52.2346ZM51.8028 38.8034H51.1863C50.9275 38.8034 50.761 38.8435 50.6869 38.9236C50.6127 39.0038 50.575 39.0969 50.575 39.2043C50.575 39.3556 50.6296 39.4668 50.7402 39.5379C50.8494 39.609 51.0445 39.644 51.3242 39.644H51.8041V38.8034H51.8028Z" fill="white"/>
<path d="M12.2964 47.1811C12.2964 45.2115 13.6594 44.0903 15.15 44.0903C15.9316 44.0903 16.5677 44.4524 16.9865 44.8675L16.1684 45.862C15.877 45.6085 15.587 45.4288 15.1864 45.4288C14.4958 45.4288 13.8962 46.0612 13.8962 47.128C13.8962 48.2311 14.4047 48.8454 15.1682 48.8454C15.6221 48.8454 15.9863 48.61 16.2412 48.3398L17.0593 49.3161C16.5599 49.8942 15.8783 50.1839 15.1136 50.1839C13.6048 50.1813 12.2964 49.1868 12.2964 47.1811Z" fill="white"/>
<path d="M17.8774 44.1978H21.6948V45.4987H19.4408V46.4208H21.3683V47.7217H19.4408V48.7705H21.7858V50.0714H17.8774V44.1978Z" fill="white"/>
<path d="M22.9302 44.1978H24.6028L25.4937 46.6018C25.603 46.9277 25.694 47.2885 25.8033 47.6325H25.8397C25.9489 47.2885 26.04 46.9277 26.1492 46.6018L27.0037 44.1978H28.6764V50.0727H27.2587V48.3373C27.2587 47.7411 27.3861 46.8281 27.459 46.241H27.4226L26.9322 47.6506L26.2052 49.5943H25.3689L24.6418 47.6506L24.1697 46.241H24.1333C24.2061 46.8281 24.3336 47.7411 24.3336 48.3373V50.0727H22.9302V44.1978Z" fill="white"/>
<path d="M29.9839 44.1978H33.8012V45.4987H31.5472V46.4208H33.4748V47.7217H31.5472V48.7705H33.8923V50.0714H29.9839V44.1978Z" fill="white"/>
<path d="M35.0366 44.1976H36.5818V45.8968C36.5818 46.6197 36.4543 47.5056 36.3815 48.1379H36.4179L36.9811 46.8189L38.2895 44.1976H39.9439V50.0726H38.3987V48.3733C38.3987 47.6504 38.5262 46.8008 38.599 46.1322H38.5626L37.9995 47.4422L36.691 50.0726H35.0366V44.1976ZM35.8183 42.4453H37.1267C37.1449 42.7802 37.2724 42.951 37.5273 42.951C37.7822 42.951 37.9084 42.779 37.9266 42.4453H39.2351C39.1986 43.2044 38.7447 43.7101 37.526 43.7101C36.3099 43.7101 35.8547 43.2044 35.8183 42.4453Z" fill="white"/>
<path d="M41.2534 44.1978H42.8168V46.3845H44.5804V44.1978H46.1438V50.0727H44.5804V47.7411H42.8168V50.0727H41.2534V44.1978Z" fill="white"/>
<path d="M47.4536 44.1978H49.017V46.2397H49.4709C50.8157 46.2397 51.8341 46.7635 51.8341 48.1019C51.8341 49.5839 50.7429 50.0714 49.4345 50.0714H47.4536V44.1978ZM49.3616 48.8429C49.943 48.8429 50.3072 48.6438 50.3072 48.12C50.3072 47.6868 49.9976 47.4695 49.3616 47.4695H49.0157V48.8429H49.3616ZM52.5248 44.1978H54.0881V50.0727H52.5248V44.1978Z" fill="white"/>
<path d="M55.3965 44.1976H56.9416V45.8968C56.9416 46.6197 56.8142 47.5056 56.7413 48.1379H56.7778L57.3409 46.8189L58.6494 44.1976H60.3038V50.0726H58.7586V48.3733C58.7586 47.6504 58.8861 46.8008 58.9589 46.1322H58.9225L58.3593 47.4422L57.0509 50.0726H55.3965V44.1976ZM56.1782 42.4453H57.4879C57.5061 42.7802 57.6336 42.951 57.8885 42.951C58.1434 42.951 58.2696 42.779 58.2878 42.4453H59.5962C59.5598 43.2044 59.1059 43.7101 57.8872 43.7101C56.6698 43.7101 56.2146 43.2044 56.1782 42.4453Z" fill="white"/>
<path d="M20.5943 59.9575H19.1948L19.0674 57.9337V56.9573H25.1205V57.9337L24.9931 59.9575H23.5936V58.2583H20.5943V59.9575ZM22.8119 53.6855H21.8663C21.7571 54.2817 21.7116 54.5352 21.5932 55.1494C21.2654 56.8306 20.6476 57.9324 19.5395 57.9324L19.3392 56.956C19.6123 56.8655 19.9206 56.3237 20.1937 54.9503C20.3849 53.9739 20.476 53.4502 20.6659 52.3833H24.3739V57.8057H22.8106V53.6855H22.8119Z" fill="white"/>
<path d="M25.5029 55.2947C25.5029 53.3601 26.6124 52.2764 28.2486 52.2764C29.8848 52.2764 30.9929 53.3704 30.9929 55.2947C30.9929 57.2293 29.8835 58.3673 28.2486 58.3673C26.6111 58.3673 25.5029 57.2293 25.5029 55.2947ZM29.3931 55.2947C29.3931 54.2278 28.9561 53.6135 28.2473 53.6135C27.5384 53.6135 27.1014 54.2278 27.1014 55.2947C27.1014 56.3616 27.5371 57.0301 28.2473 57.0301C28.9561 57.0301 29.3931 56.3616 29.3931 55.2947Z" fill="white"/>
<path d="M32.0464 52.385H33.6097V54.6261H35.0274L37.2268 58.2587H35.5906L34.1183 55.8727H33.6097V58.2587H32.0464V52.385ZM33.9739 54.8796L34.8649 53.3251C35.3006 52.566 35.7922 52.2764 36.5193 52.2764C36.7013 52.2764 36.9198 52.2945 37.0642 52.3669L36.8093 53.7584C36.7 53.7222 36.5908 53.7222 36.5362 53.7222C36.263 53.7222 36.1096 53.8489 35.9184 54.1735L35.3188 55.1861L33.9739 54.8796Z" fill="white"/>
<path d="M38.9725 53.6857H37.4092V52.3848H42.0993V53.6857H40.5359V58.2584H38.9725V53.6857Z" fill="white"/>
<path d="M42.4448 55.2947C42.4448 53.3601 43.5543 52.2764 45.1905 52.2764C46.8267 52.2764 47.9361 53.3704 47.9361 55.2947C47.9361 57.2293 46.8267 58.3673 45.1905 58.3673C43.553 58.3673 42.4448 57.2293 42.4448 55.2947ZM46.335 55.2947C46.335 54.2278 45.8993 53.6135 45.1905 53.6135C44.4816 53.6135 44.0446 54.2278 44.0446 55.2947C44.0446 56.3616 44.4803 57.0301 45.1905 57.0301C45.9006 57.0301 46.335 56.3616 46.335 55.2947Z" fill="white"/>
<path d="M48.9883 52.3848H51.1512C52.4415 52.3848 53.5509 52.8542 53.5509 54.3375C53.5509 55.7742 52.4232 56.3975 51.1876 56.3975H50.5516V58.2597H48.9883V52.3848ZM51.1161 55.1677C51.7339 55.1677 52.0253 54.8599 52.0253 54.3362C52.0253 53.8125 51.6793 53.6133 51.0797 53.6133H50.5529V55.1677H51.1161Z" fill="white"/>
<path d="M91.352 32.224C89.6773 32.224 88.2853 31.664 87.176 30.544C86.0773 29.4347 85.528 28.0533 85.528 26.4C85.528 24.736 86.0773 23.3547 87.176 22.256C88.2853 21.136 89.6773 20.576 91.352 20.576C92.3653 20.576 93.2987 20.816 94.152 21.296C95.016 21.7653 95.688 22.4053 96.168 23.216L94.264 24.32C93.9867 23.8187 93.592 23.4293 93.08 23.152C92.568 22.864 91.992 22.72 91.352 22.72C90.264 22.72 89.384 23.0613 88.712 23.744C88.0507 24.4373 87.72 25.3227 87.72 26.4C87.72 27.4667 88.0507 28.3467 88.712 29.04C89.384 29.7227 90.264 30.064 91.352 30.064C91.992 30.064 92.568 29.9253 93.08 29.648C93.6027 29.36 93.9973 28.9707 94.264 28.48L96.168 29.584C95.688 30.3947 95.016 31.04 94.152 31.52C93.2987 31.9893 92.3653 32.224 91.352 32.224ZM96.7694 24H103.857V25.984H101.361V32H99.2974V25.984H96.7694V24ZM111.463 31.008C110.652 31.8187 109.65 32.224 108.455 32.224C107.26 32.224 106.258 31.8187 105.447 31.008C104.636 30.1973 104.231 29.1947 104.231 28C104.231 26.816 104.636 25.8187 105.447 25.008C106.268 24.1867 107.271 23.776 108.455 23.776C109.639 23.776 110.642 24.1867 111.463 25.008C112.284 25.8293 112.695 26.8267 112.695 28C112.695 29.184 112.284 30.1867 111.463 31.008ZM106.903 29.584C107.319 30 107.836 30.208 108.455 30.208C109.074 30.208 109.591 30 110.007 29.584C110.423 29.168 110.631 28.64 110.631 28C110.631 27.36 110.423 26.832 110.007 26.416C109.591 26 109.074 25.792 108.455 25.792C107.836 25.792 107.319 26 106.903 26.416C106.498 26.8427 106.295 27.3707 106.295 28C106.295 28.6293 106.498 29.1573 106.903 29.584ZM120.435 24H122.467V32H120.467V27.328L118.435 30.528H118.179L116.131 27.296V32H114.147V24H116.179L118.307 27.36L120.435 24ZM130.43 24.944V24H132.494V32H130.43V31.056C129.812 31.8347 128.942 32.224 127.822 32.224C126.756 32.224 125.838 31.8187 125.07 31.008C124.313 30.1867 123.934 29.184 123.934 28C123.934 26.8267 124.313 25.8293 125.07 25.008C125.838 24.1867 126.756 23.776 127.822 23.776C128.942 23.776 129.812 24.1653 130.43 24.944ZM126.622 29.632C127.038 30.048 127.566 30.256 128.206 30.256C128.846 30.256 129.374 30.048 129.79 29.632C130.217 29.2053 130.43 28.6613 130.43 28C130.43 27.3387 130.217 26.8 129.79 26.384C129.374 25.9573 128.846 25.744 128.206 25.744C127.566 25.744 127.038 25.9573 126.622 26.384C126.206 26.8 125.998 27.3387 125.998 28C125.998 28.6613 126.206 29.2053 126.622 29.632ZM133.582 24H140.67V25.984H138.174V32H136.11V25.984H133.582V24ZM148.276 31.008C147.465 31.8187 146.462 32.224 145.268 32.224C144.073 32.224 143.07 31.8187 142.26 31.008C141.449 30.1973 141.044 29.1947 141.044 28C141.044 26.816 141.449 25.8187 142.26 25.008C143.081 24.1867 144.084 23.776 145.268 23.776C146.452 23.776 147.454 24.1867 148.276 25.008C149.097 25.8293 149.508 26.8267 149.508 28C149.508 29.184 149.097 30.1867 148.276 31.008ZM143.716 29.584C144.132 30 144.649 30.208 145.268 30.208C145.886 30.208 146.404 30 146.82 29.584C147.236 29.168 147.444 28.64 147.444 28C147.444 27.36 147.236 26.832 146.82 26.416C146.404 26 145.886 25.792 145.268 25.792C144.649 25.792 144.132 26 143.716 26.416C143.31 26.8427 143.108 27.3707 143.108 28C143.108 28.6293 143.31 29.1573 143.716 29.584ZM151.285 24H157.621V32H155.557V25.984H153.349V28.656C153.349 31.12 152.223 32.2347 149.973 32V30.064C150.399 30.1707 150.725 30.096 150.949 29.84C151.173 29.584 151.285 29.152 151.285 28.544V24ZM166.307 31.008C165.496 31.8187 164.494 32.224 163.299 32.224C162.104 32.224 161.102 31.8187 160.291 31.008C159.48 30.1973 159.075 29.1947 159.075 28C159.075 26.816 159.48 25.8187 160.291 25.008C161.112 24.1867 162.115 23.776 163.299 23.776C164.483 23.776 165.486 24.1867 166.307 25.008C167.128 25.8293 167.539 26.8267 167.539 28C167.539 29.184 167.128 30.1867 166.307 31.008ZM161.747 29.584C162.163 30 162.68 30.208 163.299 30.208C163.918 30.208 164.435 30 164.851 29.584C165.267 29.168 165.475 28.64 165.475 28C165.475 27.36 165.267 26.832 164.851 26.416C164.435 26 163.918 25.792 163.299 25.792C162.68 25.792 162.163 26 161.747 26.416C161.342 26.8427 161.139 27.3707 161.139 28C161.139 28.6293 161.342 29.1573 161.747 29.584ZM168.991 24H174.463V25.984H171.055V32H168.991V24ZM177.585 28.544L181.345 24H182.881V32H180.865V27.456L177.105 32H175.569V24H177.585V28.544ZM189.492 27.52V24H191.556V32H189.492V29.456C188.895 29.648 188.26 29.744 187.588 29.744C186.607 29.744 185.828 29.4933 185.252 28.992C184.676 28.4907 184.388 27.7813 184.388 26.864V24H186.452V26.624C186.452 27.424 186.948 27.824 187.94 27.824C188.527 27.824 189.044 27.7227 189.492 27.52ZM201.204 28.848H195.172C195.439 29.8507 196.191 30.352 197.428 30.352C198.218 30.352 198.815 30.0853 199.22 29.552L200.884 30.512C200.095 31.6533 198.932 32.224 197.396 32.224C196.074 32.224 195.012 31.824 194.212 31.024C193.412 30.224 193.012 29.216 193.012 28C193.012 26.8053 193.407 25.8027 194.196 24.992C194.975 24.1813 195.988 23.776 197.236 23.776C198.42 23.776 199.386 24.1813 200.132 24.992C200.9 25.8027 201.284 26.8053 201.284 28C201.284 28.224 201.258 28.5067 201.204 28.848ZM195.14 27.248H199.22C199.103 26.7253 198.863 26.3253 198.5 26.048C198.148 25.7707 197.727 25.632 197.236 25.632C196.682 25.632 196.223 25.776 195.86 26.064C195.498 26.3413 195.258 26.736 195.14 27.248ZM206.471 32.224C205.265 32.224 204.257 31.8187 203.447 31.008C202.647 30.1973 202.247 29.1947 202.247 28C202.247 26.8053 202.647 25.8027 203.447 24.992C204.257 24.1813 205.265 23.776 206.471 23.776C207.249 23.776 207.959 23.9627 208.599 24.336C209.239 24.7093 209.724 25.2107 210.055 25.84L208.279 26.88C208.119 26.5493 207.873 26.288 207.543 26.096C207.223 25.904 206.86 25.808 206.455 25.808C205.836 25.808 205.324 26.016 204.919 26.432C204.513 26.8373 204.311 27.36 204.311 28C204.311 28.6187 204.513 29.1413 204.919 29.568C205.324 29.9733 205.836 30.176 206.455 30.176C206.871 30.176 207.239 30.0853 207.559 29.904C207.889 29.712 208.135 29.4507 208.295 29.12L210.087 30.144C209.735 30.784 209.233 31.2907 208.583 31.664C207.943 32.0373 207.239 32.224 206.471 32.224ZM215.305 27.952L218.617 32H216.217L213.305 28.368V32H211.241V24H213.305V27.52L216.057 24H218.521L215.305 27.952ZM225.149 24.944V24H227.213V32H225.149V31.056C224.53 31.8347 223.661 32.224 222.541 32.224C221.474 32.224 220.557 31.8187 219.789 31.008C219.032 30.1867 218.653 29.184 218.653 28C218.653 26.8267 219.032 25.8293 219.789 25.008C220.557 24.1867 221.474 23.776 222.541 23.776C223.661 23.776 224.53 24.1653 225.149 24.944ZM221.341 29.632C221.757 30.048 222.285 30.256 222.925 30.256C223.565 30.256 224.093 30.048 224.509 29.632C224.936 29.2053 225.149 28.6613 225.149 28C225.149 27.3387 224.936 26.8 224.509 26.384C224.093 25.9573 223.565 25.744 222.925 25.744C222.285 25.744 221.757 25.9573 221.341 26.384C220.925 26.8 220.717 27.3387 220.717 28C220.717 28.6613 220.925 29.2053 221.341 29.632ZM231.757 24H235.501V32H233.485V29.504H232.765L230.925 32H228.541L230.541 29.264C230.029 29.0507 229.618 28.7147 229.309 28.256C229.01 27.7973 228.861 27.296 228.861 26.752C228.861 26.016 229.127 25.3707 229.661 24.816C230.183 24.272 230.882 24 231.757 24ZM233.485 25.84H231.917C231.618 25.84 231.367 25.9307 231.165 26.112C230.973 26.2933 230.877 26.528 230.877 26.816C230.877 27.104 230.973 27.3333 231.165 27.504C231.367 27.6747 231.618 27.76 231.917 27.76H233.485V25.84ZM90.008 46.952L93.32 51H90.92L88.008 47.368V51H85.944V43H88.008V46.52L90.76 43H93.224L90.008 46.952ZM94.8783 43H101.214V51H99.1503V44.984H96.9423V47.656C96.9423 50.12 95.8169 51.2347 93.5663 51V49.064C93.9929 49.1707 94.3183 49.096 94.5423 48.84C94.7663 48.584 94.8783 48.152 94.8783 47.544V43ZM105.101 47.544L108.861 43H110.397V51H108.381V46.456L104.621 51H103.085V43H105.101V47.544ZM117.536 46.024V43H119.6V51H117.536V47.96H114.352V51H112.288V43H114.352V46.024H117.536ZM123.507 47.544L127.267 43H128.803V51H126.787V46.456L123.027 51H121.491V43H123.507V47.544ZM134.758 46.952L138.07 51H135.67L132.758 47.368V51H130.694V43H132.758V46.52L135.51 43H137.974L134.758 46.952ZM144.602 43.944V43H146.666V51H144.602V50.056C143.983 50.8347 143.114 51.224 141.994 51.224C140.927 51.224 140.01 50.8187 139.242 50.008C138.485 49.1867 138.106 48.184 138.106 47C138.106 45.8267 138.485 44.8293 139.242 44.008C140.01 43.1867 140.927 42.776 141.994 42.776C143.114 42.776 143.983 43.1653 144.602 43.944ZM140.794 48.632C141.21 49.048 141.738 49.256 142.378 49.256C143.018 49.256 143.546 49.048 143.962 48.632C144.389 48.2053 144.602 47.6613 144.602 47C144.602 46.3387 144.389 45.8 143.962 45.384C143.546 44.9573 143.018 44.744 142.378 44.744C141.738 44.744 141.21 44.9573 140.794 45.384C140.378 45.8 140.17 46.3387 140.17 47C140.17 47.6613 140.378 48.2053 140.794 48.632Z" fill="#099DBA"/>
<defs>
<linearGradient id="paint0_linear_1_677" x1="35.6718" y1="5.05391" x2="37.1845" y2="68.1926" gradientUnits="userSpaceOnUse">
<stop stop-color="#38E0DE"/>
<stop offset="1" stop-color="#0699B8"/>
</linearGradient>
</defs>
</svg>
