<svg width="63" height="63" viewBox="0 0 63 63" fill="none" xmlns="http://www.w3.org/2000/svg">
<g id="UserGear">
<path id="Vector" d="M49.2188 17.7188C51.3934 17.7188 53.1562 15.9559 53.1562 13.7812C53.1562 11.6066 51.3934 9.84375 49.2188 9.84375C47.0441 9.84375 45.2812 11.6066 45.2812 13.7812C45.2812 15.9559 47.0441 17.7188 49.2188 17.7188Z" stroke="#099DBA" stroke-width="2" stroke-linecap="round" stroke-linejoin="round"/>
<path id="Vector_2" d="M49.2188 9.84375V6.89062" stroke="#099DBA" stroke-width="2" stroke-linecap="round" stroke-linejoin="round"/>
<path id="Vector_3" d="M45.8089 11.8125L43.2515 10.3359" stroke="#099DBA" stroke-width="2" stroke-linecap="round" stroke-linejoin="round"/>
<path id="Vector_4" d="M45.8089 15.75L43.2515 17.2266" stroke="#099DBA" stroke-width="2" stroke-linecap="round" stroke-linejoin="round"/>
<path id="Vector_5" d="M49.2188 17.7188V20.6719" stroke="#099DBA" stroke-width="2" stroke-linecap="round" stroke-linejoin="round"/>
<path id="Vector_6" d="M52.6289 15.75L55.1864 17.2266" stroke="#099DBA" stroke-width="2" stroke-linecap="round" stroke-linejoin="round"/>
<path id="Vector_7" d="M52.6289 11.8125L55.1864 10.3359" stroke="#099DBA" stroke-width="2" stroke-linecap="round" stroke-linejoin="round"/>
<path id="Vector_8" d="M7.62598 53.1539C10.0465 48.9644 13.5268 45.4855 17.7175 43.0668C21.9082 40.6482 26.6615 39.375 31.5001 39.375C36.3386 39.375 41.0919 40.6484 45.2825 43.0671C49.4731 45.4859 52.9535 48.9648 55.3739 53.1544" stroke="#099DBA" stroke-width="2" stroke-linecap="round" stroke-linejoin="round"/>
<path id="Vector_9" d="M45.9277 29.9519C44.7494 32.6334 42.8464 34.933 40.4327 36.5922C38.0191 38.2514 35.1904 39.2044 32.2648 39.344C29.3392 39.4836 26.4326 38.8043 23.8719 37.3824C21.3112 35.9606 19.198 33.8526 17.7697 31.2955C16.3414 28.7384 15.6548 25.8336 15.7871 22.9076C15.9193 19.9817 16.8651 17.1506 18.5182 14.7328C20.1714 12.3149 22.4662 10.4062 25.1447 9.22115C27.8232 8.03611 30.7792 7.62176 33.6802 8.0247" stroke="#099DBA" stroke-width="2" stroke-linecap="round" stroke-linejoin="round"/>
</g>
</svg>
