<svg width="64" height="63" viewBox="0 0 64 63" fill="none" xmlns="http://www.w3.org/2000/svg">
<g id="Calendar">
<path id="Vector" d="M51.753 9.84375H12.2463C11.1554 9.84375 10.271 10.7252 10.271 11.8125V51.1875C10.271 52.2748 11.1554 53.1562 12.2463 53.1562H51.753C52.844 53.1562 53.7284 52.2748 53.7284 51.1875V11.8125C53.7284 10.7252 52.844 9.84375 51.753 9.84375Z" stroke="#099DBA" stroke-width="2" stroke-linecap="round" stroke-linejoin="round"/>
<path id="Vector_2" d="M43.8521 5.90625V13.7812" stroke="#099DBA" stroke-width="2" stroke-linecap="round" stroke-linejoin="round"/>
<path id="Vector_3" d="M20.1479 5.90625V13.7812" stroke="#099DBA" stroke-width="2" stroke-linecap="round" stroke-linejoin="round"/>
<path id="Vector_4" d="M10.271 21.6562H53.7284" stroke="#099DBA" stroke-width="2" stroke-linecap="round" stroke-linejoin="round"/>
<path id="Vector_5" d="M23.1108 31.499H30.0245L26.0738 36.4209C26.7234 36.4209 27.363 36.5805 27.9359 36.8857C28.5088 37.1908 28.9974 37.6321 29.3584 38.1703C29.7193 38.7086 29.9416 39.3273 30.0054 39.9716C30.0692 40.6159 29.9727 41.2659 29.7242 41.8641C29.4758 42.4623 29.0833 42.9903 28.5813 43.4012C28.0793 43.8121 27.4834 44.0933 26.8464 44.2199C26.2093 44.3465 25.5508 44.3146 24.929 44.127C24.3073 43.9394 23.7416 43.6018 23.282 43.1443" stroke="#099DBA" stroke-width="2" stroke-linecap="round" stroke-linejoin="round"/>
<path id="Vector_6" d="M35.9507 34.4521L39.9014 31.499V44.2959" stroke="#099DBA" stroke-width="2" stroke-linecap="round" stroke-linejoin="round"/>
</g>
</svg>
